PathFileType	4	(X/Y/Z)	c:/Users/goper/Files/vsCode/490R/osim_files/C11/C11_Static01.trc
DataRate	CameraRate	NumFrames	NumMarkers	Units                	OrigDataRate	OrigDataStartFrame	OrigNumFrames
120.00	120.00	5	36	mm	120.0	409	1089
                Frame#	Time	LPSI			LASI			LTH1			LTH2			LTH3			LTH4			LLFE			LMFE			LSH1			LSH2			LSH3			LSH4			LLMA			LMMA			LCAL			LMTP			LTOE			LMTP			RPSI			RASI			RTH1			RTH2			RTH3			RTH4			RLFE			RMFE			RSH1			RSH2			RSH3			RSH4			RLMA			RMMA			RCAL			RMTP			RTOE			RMTP		
		X1	Y1	Z1	X2	Y2	Z2	X3	Y3	Z3	X4	Y4	Z4	X5	Y5	Z5	X6	Y6	Z6	X7	Y7	Z7	X8	Y8	Z8	X9	Y9	Z9	X10	Y10	Z10	X11	Y11	Z11	X12	Y12	Z12	X13	Y13	Z13	X14	Y14	Z14	X15	Y15	Z15	X16	Y16	Z16	X17	Y17	Z17	X18	Y18	Z18	X19	Y19	Z19	X20	Y20	Z20	X21	Y21	Z21	X22	Y22	Z22	X23	Y23	Z23	X24	Y24	Z24	X25	Y25	Z25	X26	Y26	Z26	X27	Y27	Z27	X28	Y28	Z28	X29	Y29	Z29	X30	Y30	Z30	X31	Y31	Z31	X32	Y32	Z32	X33	Y33	Z33	X34	Y34	Z34	X35	Y35	Z35	X36	Y36	Z36

409	3.40000	-375.64264	1017.90814	476.51593	-200.39558	1009.02649	402.88330	-319.09473	644.63086	311.78653	-315.86435	597.14081	309.14612	-258.46210	643.83099	308.07590	-264.36212	597.29169	309.40897	-315.44876	516.16638	304.18192	-296.13916	501.71423	413.11053	-375.35260	414.08679	290.09436	-375.88861	369.36810	285.93509	-314.39005	409.62015	278.70160	-323.15829	365.57654	276.31445	-352.93961	96.93716	311.21146	-315.14185	110.26919	402.58408	-405.14508	58.76722	370.20242	-243.93611	40.37596	268.28738	-165.73380	57.58740	330.07782	-201.95145	45.56364	379.59024	-367.62735	1030.95898	560.44751	-202.29260	1001.40356	632.62415	-301.79965	632.23645	706.08350	-297.14813	588.32990	705.86829	-239.44586	630.90485	697.90161	-245.03844	588.32452	700.36292	-278.44833	520.51221	699.19489	-304.19724	488.03525	589.71667	-347.91425	414.75381	727.37335	-343.04724	368.75900	730.20496	-286.19907	412.93970	722.01727	-290.00946	366.11493	727.63513	-326.85431	98.41748	711.66089	-298.64963	105.29382	617.59979	-387.56631	58.66471	664.42249	-171.36121	48.95615	643.12988	-168.16992	61.74987	692.62177	-209.31058	38.83419	753.80524
410	3.40833	-375.65799	1017.93842	476.55023	-200.44720	1009.02777	402.91327	-319.12607	644.62830	311.81036	-315.88202	597.12646	309.17084	-258.48380	643.85229	308.07208	-264.42017	597.28394	309.39444	-315.44617	516.20197	304.18991	-296.12039	501.80444	413.12344	-375.33029	414.09933	290.07056	-375.90604	369.38489	285.91833	-314.39557	409.64716	278.70242	-323.17731	365.59781	276.31531	-352.95175	96.94046	311.19858	-315.12918	110.27385	402.58899	-405.16452	58.80981	370.13181	-243.93184	40.36306	268.28094	-165.75092	57.56298	330.06656	-201.95668	45.54601	379.59070	-367.70679	1031.01624	560.45667	-202.32137	1001.36273	632.65411	-301.81113	632.23486	706.10858	-297.13208	588.34161	705.89178	-239.47769	630.88934	697.90192	-245.04320	588.29523	700.37238	-278.45087	520.48438	699.21832	-304.20303	488.03668	589.71539	-347.88641	414.74951	727.38867	-342.99991	368.77621	730.23914	-286.19995	412.93723	722.03424	-290.02664	366.08209	727.64288	-326.83618	98.45853	711.66779	-298.65756	105.29051	617.56573	-387.55051	58.63998	664.40936	-171.38870	48.92710	643.14246	-168.16544	61.75433	692.61761	-209.29405	38.84766	753.79785
411	3.41667	-375.66330	1017.91669	476.57254	-200.49380	1009.01862	402.95810	-319.18073	644.62396	311.84354	-315.90900	597.12744	309.19000	-258.53937	643.85657	308.08282	-264.44049	597.27911	309.41806	-315.48453	516.21960	304.20334	-296.11981	501.80087	413.15375	-375.34506	414.10547	290.07538	-375.88733	369.38214	285.92291	-314.40768	409.64252	278.71332	-323.17670	365.59406	276.31903	-352.97662	96.93993	311.19473	-315.17239	110.25684	402.58575	-405.20486	58.78553	370.07672	-244.06242	40.22460	268.36890	-165.76207	57.56234	330.07126	-202.02667	45.53397	379.61786	-368.55582	1031.31262	560.47961	-202.38992	1001.34436	632.70667	-301.87000	632.21753	706.12134	-297.17520	588.33167	705.91388	-239.51814	630.89801	697.95319	-245.09991	588.29675	700.41095	-278.49832	520.49365	699.24963	-304.23358	488.03220	589.73401	-347.93250	414.73206	727.38715	-343.05777	368.74142	730.22089	-286.26141	412.91193	722.06665	-290.05991	366.07425	727.68219	-326.84454	98.43456	711.66449	-298.67935	105.29277	617.56390	-387.60962	58.67010	664.36938	-171.42177	48.90781	643.15735	-168.15543	61.78001	692.63721	-209.30563	38.85040	753.80780
412	3.42500	-375.65625	1017.89935	476.61008	-200.52704	1009.00085	403.00293	-319.26093	644.62823	311.92316	-315.95810	597.15332	309.24680	-258.57776	643.86456	308.11606	-264.49393	597.29150	309.46255	-315.51392	516.24280	304.24277	-296.18649	501.78925	413.16095	-375.21399	414.11121	290.14505	-375.92444	369.39288	285.96667	-314.43771	409.66446	278.75153	-323.21658	365.59943	276.34576	-352.95493	96.94318	311.20331	-315.16757	110.29425	402.58694	-405.19339	58.76099	370.10034	-244.06479	40.23929	268.37833	-165.78197	57.58556	330.07443	-201.97653	45.59293	379.60205	-368.57056	1031.33521	560.52765	-202.36552	1001.37000	632.74261	-301.89145	632.22699	706.12927	-297.20422	588.34570	705.92175	-239.52075	630.90088	697.97327	-245.10730	588.31329	700.43774	-278.53131	520.51282	699.25543	-304.23932	488.03851	589.75049	-347.96429	414.72925	727.38892	-343.05215	368.74408	730.22626	-286.20050	412.97034	722.09387	-290.04767	366.09387	727.70172	-326.86130	98.45071	711.64362	-298.67703	105.30318	617.57532	-387.58420	58.66010	664.36969	-171.41925	48.94555	643.12573	-168.17758	61.79592	692.64600	-209.29691	38.86656	753.80206
413	3.43333	-375.69098	1017.92804	476.70096	-200.53268	1009.01245	403.04034	-319.32611	644.67572	312.00964	-316.00613	597.19794	309.30673	-258.62314	643.89136	308.17343	-264.53915	597.33759	309.49655	-315.56830	516.27167	304.29657	-296.19882	501.76535	413.25043	-375.39310	414.14212	290.18188	-375.97244	369.41821	286.03436	-314.31232	409.90213	278.74774	-323.23651	365.64505	276.36865	-352.93231	96.96596	311.21970	-315.14954	110.33965	402.58051	-405.14438	58.75471	370.13379	-244.04640	40.27512	268.39197	-165.72806	57.66761	330.06607	-201.94086	45.66393	379.58990	-368.57385	1031.38159	560.55579	-202.30244	1001.41956	632.76550	-301.90591	632.27948	706.14856	-297.23346	588.38544	705.93451	-239.53009	630.94983	698.01721	-245.09764	588.35980	700.48285	-278.51312	520.56439	699.25763	-304.21930	488.06229	589.79675	-347.98819	414.75916	727.41034	-343.04050	368.80188	730.21619	-286.15503	413.06763	722.10626	-290.03528	366.12860	727.72791	-326.87500	98.49337	711.64984	-298.65424	105.35829	617.59033	-387.59610	58.75471	664.39270	-171.39644	49.01881	643.10034	-168.14365	61.85989	692.61731	-209.26239	38.90119	753.80524
